<svg width="67" height="20" viewBox="0 0 67 20" fill="none" xmlns="http://www.w3.org/2000/svg">
<path d="M4.725 1.675V19H0.625V1.675H4.725ZM14.675 1.675L9.15 9.45L15.125 19H10.375L4.85 9.75L10.35 1.675H14.675ZM21.6809 5.3C23.7142 5.3 25.3059 5.925 26.4559 7.175C27.6059 8.40833 28.1809 10.1417 28.1809 12.375C28.1809 13.7917 27.9142 15.0333 27.3809 16.1C26.8642 17.15 26.1142 17.9667 25.1309 18.55C24.1642 19.1333 23.0142 19.425 21.6809 19.425C19.6642 19.425 18.0725 18.8083 16.9059 17.575C15.7559 16.325 15.1809 14.5833 15.1809 12.35C15.1809 10.9333 15.4392 9.7 15.9559 8.65C16.4892 7.58333 17.2392 6.75833 18.2059 6.175C19.1892 5.59167 20.3475 5.3 21.6809 5.3ZM21.6809 8.2C20.8809 8.2 20.2809 8.54167 19.8809 9.225C19.4809 9.89167 19.2809 10.9333 19.2809 12.35C19.2809 13.8 19.4725 14.8583 19.8559 15.525C20.2559 16.1917 20.8642 16.525 21.6809 16.525C22.4809 16.525 23.0809 16.1917 23.4809 15.525C23.8809 14.8417 24.0809 13.7917 24.0809 12.375C24.0809 10.925 23.8809 9.86667 23.4809 9.2C23.0975 8.53333 22.4975 8.2 21.6809 8.2ZM37.7305 5.35C38.2138 5.35 38.6555 5.40833 39.0555 5.525L38.4305 9.35C37.9305 9.23333 37.5305 9.175 37.2305 9.175C36.4471 9.175 35.8471 9.45 35.4305 10C35.0305 10.5333 34.7138 11.3417 34.4805 12.425V19H30.5305V5.725H33.9805L34.3055 8.3C34.6055 7.38333 35.0555 6.66667 35.6555 6.15C36.2721 5.61667 36.9638 5.35 37.7305 5.35ZM51.3828 12.1C51.3828 12.65 51.3578 13.125 51.3078 13.525H43.0828C43.2161 14.6417 43.5328 15.425 44.0328 15.875C44.5328 16.325 45.2245 16.55 46.1078 16.55C46.6411 16.55 47.1578 16.4583 47.6578 16.275C48.1578 16.075 48.6995 15.775 49.2828 15.375L50.9078 17.575C49.3578 18.8083 47.6328 19.425 45.7328 19.425C43.5828 19.425 41.9328 18.7917 40.7828 17.525C39.6328 16.2583 39.0578 14.5583 39.0578 12.425C39.0578 11.075 39.2995 9.86667 39.7828 8.8C40.2661 7.71667 40.9745 6.86667 41.9078 6.25C42.8411 5.61667 43.9578 5.3 45.2578 5.3C47.1745 5.3 48.6745 5.9 49.7578 7.1C50.8411 8.3 51.3828 9.96667 51.3828 12.1ZM47.5078 10.975C47.4745 8.94167 46.7578 7.925 45.3578 7.925C44.6745 7.925 44.1411 8.175 43.7578 8.675C43.3911 9.175 43.1661 10 43.0828 11.15H47.5078V10.975ZM57.1268 19.425C55.9768 19.425 55.0768 19.1 54.4268 18.45C53.7934 17.7833 53.4768 16.8417 53.4768 15.625V0.449999L57.4268 0.0249984V15.475C57.4268 16.025 57.6518 16.3 58.1018 16.3C58.3351 16.3 58.5518 16.2583 58.7518 16.175L59.5268 18.975C58.8101 19.275 58.0101 19.425 57.1268 19.425ZM64.5486 19.425C63.3986 19.425 62.4986 19.1 61.8486 18.45C61.2153 17.7833 60.8986 16.8417 60.8986 15.625V0.449999L64.8486 0.0249984V15.475C64.8486 16.025 65.0736 16.3 65.5236 16.3C65.757 16.3 65.9736 16.2583 66.1736 16.175L66.9486 18.975C66.232 19.275 65.432 19.425 64.5486 19.425Z" fill="black"/>
</svg>
